<?xml version="1.0" encoding="UTF-8" standalone="no"?>
<svg
   xmlns:dc="http://purl.org/dc/elements/1.1/"
   xmlns:cc="http://creativecommons.org/ns#"
   xmlns:rdf="http://www.w3.org/1999/02/22-rdf-syntax-ns#"
   xmlns:svg="http://www.w3.org/2000/svg"
   xmlns="http://www.w3.org/2000/svg"
   xmlns:sodipodi="http://sodipodi.sourceforge.net/DTD/sodipodi-0.dtd"
   xmlns:inkscape="http://www.inkscape.org/namespaces/inkscape"
   version="1.1"
   x="0px"
   y="0px"
   width="512px"
   height="512px"
   viewBox="0 0 512 512"
   enable-background="new 0 0 512 512"
   xml:space="preserve"
   id="svg9"
   sodipodi:docname="cansado.svg"
   inkscape:version="0.92.3 (2405546, 2018-03-11)"><metadata
     id="metadata15"><rdf:RDF><cc:Work
         rdf:about=""><dc:format>image/svg+xml</dc:format><dc:type
           rdf:resource="http://purl.org/dc/dcmitype/StillImage" /></cc:Work></rdf:RDF></metadata><defs
     id="defs13" /><sodipodi:namedview
     pagecolor="#ffffff"
     bordercolor="#666666"
     borderopacity="1"
     objecttolerance="10"
     gridtolerance="10"
     guidetolerance="10"
     inkscape:pageopacity="0"
     inkscape:pageshadow="2"
     inkscape:window-width="640"
     inkscape:window-height="480"
     id="namedview11"
     showgrid="false"
     inkscape:zoom="0.4609375"
     inkscape:cx="256"
     inkscape:cy="256"
     inkscape:window-x="0"
     inkscape:window-y="0"
     inkscape:window-maximized="0"
     inkscape:current-layer="svg9" /><g
     id="2069a460dcf28295e231f3111e0464ea"
     style="fill:#000000"><g
       id="g2"
       style="fill:#000000" /><g
       fill="#ffffff"
       id="g6"
       style="fill:#000000"><path
         display="inline"
         d="M256,0.5C114.893,0.5,0.5,114.893,0.5,256S114.893,511.5,256,511.5S511.5,397.107,511.5,256   S397.107,0.5,256,0.5z M256,468.917c-117.404,0-212.917-95.514-212.917-212.917c0-117.404,95.513-212.917,212.917-212.917   c117.403,0,212.917,95.513,212.917,212.917C468.917,373.403,373.403,468.917,256,468.917z M405.042,341.167   c0,39.688-78.488-21.292-149.042-21.292s-149.042,60.98-149.042,21.292c0-39.689,21.292-149.042,149.042-149.042   S405.042,301.478,405.042,341.167z M128.891,141.819c-0.36-1.256-8.19-30.871,42.406-45.332   c50.599-14.453,59.596,14.829,59.956,16.085c1.614,5.654-1.659,11.546-7.313,13.162c-5.654,1.616-11.546-1.659-13.16-7.313   c-0.031-0.104-5.699-9.438-33.634-1.462c-27.933,7.984-27.814,18.907-27.783,19.011c1.614,5.654-1.659,11.544-7.313,13.16   C136.396,150.746,130.504,147.473,128.891,141.819z M280.747,112.572c0.362-1.256,9.357-30.538,59.954-16.085   c50.601,14.461,42.766,44.076,42.408,45.332c-1.613,5.653-7.506,8.926-13.157,7.311c-5.655-1.616-8.929-7.506-7.315-13.16   c0.029-0.104,0.15-11.026-27.783-19.011c-27.937-7.976-33.601,1.358-33.634,1.462c-1.613,5.653-7.506,8.928-13.157,7.313   C282.406,124.119,279.134,118.226,280.747,112.572z"
         id="path4"
         style="fill:#000000" /></g></g></svg>