<?xml version="1.0"?>
<svg xmlns="http://www.w3.org/2000/svg" viewBox="0 0 512 512" width="512" height="512"><g id="outline"><path d="M494.813,163.807l-25.344-41.185A183.342,183.342,0,0,0,355.437,40.577L324.8,17.6a7.994,7.994,0,0,0-7.33-1.189l-32.821,10.94A90.432,90.432,0,0,1,256,32a90.422,90.422,0,0,1-28.648-4.649L194.53,16.411A8,8,0,0,0,187.2,17.6L156.563,40.577A183.342,183.342,0,0,0,42.531,122.622L17.187,163.807a8,8,0,0,0,1.9,10.508l72,56A8,8,0,0,0,102.247,229l16.7-20.871-6.935,159.525a7.956,7.956,0,0,0,.952,4.1l-.019.01,30.119,56.47a128,128,0,0,0,225.88,0l30.119-56.47-.018-.01a7.968,7.968,0,0,0,.951-4.1l-6.935-159.525L409.753,229a8,8,0,0,0,11.158,1.317l72-56A8,8,0,0,0,494.813,163.807ZM320.751,34.563,340.3,49.224,297.151,98.536A16,16,0,0,1,285.109,104H280a16.027,16.027,0,0,1-15.713-12.974ZM256,48a106.407,106.407,0,0,0,33.709-5.47l.671-.224L256,76.686l-34.38-34.38.672.224A106.4,106.4,0,0,0,256,48Zm-8.287,43.026A16.027,16.027,0,0,1,232,104h-5.109a16,16,0,0,1-12.042-5.464L171.7,49.224l19.548-14.661Zm-90.536,329.68-20.684-38.782c6.751,2.247,14.53,4.835,22.014,7.32a77.045,77.045,0,0,1,42.67,34.939l.485.85a61.786,61.786,0,0,0,4.512,6.8q-.888,1.383-1.695,2.828a34.235,34.235,0,0,1-22.939,17.016A112.055,112.055,0,0,1,157.177,420.706Zm39.715,42.449a50.188,50.188,0,0,0,21.574-20.72A35.86,35.86,0,0,1,249.8,424H262.2a35.859,35.859,0,0,1,31.331,18.436,50.192,50.192,0,0,0,21.574,20.719,112.126,112.126,0,0,1-118.216,0Zm157.931-42.449a112.055,112.055,0,0,1-24.363,30.975,34.237,34.237,0,0,1-22.939-17.015q-.808-1.455-1.7-2.842a63,63,0,0,0,4.548-6.842l.935-1.637a74.454,74.454,0,0,1,41.157-33.736L375.5,381.93ZM417.317,212.84,390.247,179a8,8,0,0,0-14.239,5.346l7.737,177.97L347.4,374.43a90.433,90.433,0,0,0-49.99,40.976l-.934,1.636c-.5.877-1.034,1.732-1.589,2.571A51.847,51.847,0,0,0,262.2,408H249.8a51.847,51.847,0,0,0-32.688,11.617q-.816-1.235-1.554-2.52l-.485-.85a93.021,93.021,0,0,0-51.52-42.188c-13.322-4.424-27.594-9.176-35.3-11.741l7.737-177.97A8,8,0,0,0,121.753,179L94.683,212.84,34.57,166.087l21.588-35.079a167.289,167.289,0,0,1,101-74.106l45.649,52.17A32,32,0,0,0,226.891,120H232a31.923,31.923,0,0,0,24-10.868A31.923,31.923,0,0,0,280,120h5.109a32,32,0,0,0,24.083-10.928L354.841,56.9a167.289,167.289,0,0,1,101,74.106l21.588,35.079Z"/><path d="M352,144H272a8,8,0,0,0-8,8v80a8,8,0,0,0,5.029,7.428l40,16a8,8,0,0,0,5.942,0l40-16A8,8,0,0,0,360,232V152A8,8,0,0,0,352,144Zm-8,82.583-32,12.8-32-12.8V160h64v66.583Z"/></g></svg>
