<svg height="512" viewBox="0 0 46 60" width="512" xmlns="http://www.w3.org/2000/svg"><g id="Page-1" fill="none" fill-rule="evenodd"><g id="064---Water-Bottle" fill="rgb(0,0,0)" fill-rule="nonzero"><path id="Shape" d="m3.818 50.7c.50163757.7364545 1.3114305 1.2042939 2.2 1.271 4.1736235 5.0860521 10.4067098 8.0342578 16.986 8.0342578s12.8123765-2.9482057 16.986-8.0342578c.8885695-.0667061 1.6983624-.5345455 2.2-1.271 5.0905836-7.6978536 5.0905836-17.6921464 0-25.39-.5029135-.7381879-1.3151804-1.2065485-2.206-1.272-3.0646279-3.739379-7.2767681-6.3638826-11.984-7.467v-2.755c1.1943509-.4222546 1.9947486-1.5492146 2-2.816v-4c-.0043199-1.29951706-.8467182-2.44776461-2.085-2.842-.4035536-2.39996322-2.4813445-4.1575431-4.915-4.1575431s-4.5114464 1.75757988-4.915 4.1575431c-1.2382818.39423539-2.0806801 1.54248294-2.085 2.842v4c.0052514 1.2667854.8056491 2.3937454 2 2.816v2.755c-4.7032995 1.1036029-8.91194232 3.7261409-11.975 7.462-.8908196.0654515-1.70308648.5338121-2.206 1.272-5.09058363 7.6978536-5.09058363 17.6921464 0 25.39zm19.182 7.3c-5.3753739.0140852-10.5270395-2.1506318-14.279-6h2.986c1.7740472 1.4479646 3.8114873 2.5390138 6 3.213.0945694.0292562.1930087.0440895.292.044.4947443-.0006747.9146282-.3630286.9876763-.852351.0730481-.4893223-.2226998-.9585089-.6956763-1.103649-1.0593121-.3259603-2.0815586-.7620071-3.05-1.301h22.038c-3.7519605 3.8493682-8.9036261 6.0140852-14.279 6zm0-56c1.2667854.00525139 2.3937454.80564913 2.816 2h-5.632c.4222546-1.19435087 1.5492146-1.99474861 2.816-2zm-5 5c0-.55228475.4477153-1 1-1h1v3c0 .55228475.4477153 1 1 1s1-.44771525 1-1v-3h2v3c0 .55228475.4477153 1 1 1s1-.44771525 1-1v-3h1c.5522847 0 1 .44771525 1 1v4c0 .5522847-.4477153 1-1 1h-8c-.5522847 0-1-.4477153-1-1zm1.188 11.362c.623-.12 1.264-.212 1.907-.273.2645512-.0240821.508649-.1524359.6784338-.3567405s.2513024-.4677687.2265662-.7322595c-.0202631-.2660877-.1480529-.5124376-.3539071-.6822532-.2058542-.1698155-.4720058-.2484402-.7370929-.2177468-.3.028-.6.088-.906.13v-2.23h6v2.229c-.3-.042-.6-.1-.906-.13-.265878-.030698-.5328235.0478966-.7396492.217769-.2068257.1698723-.3357965.416456-.3573508.683231-.0521958.5494401.3506097 1.0372823.9 1.09.643.061 1.284.153 1.908.273 3.9764791.7739654 7.6231276 2.7401211 10.455 5.637h-22.023c1.5366251-.8526849 3.2038431-1.4450304 4.934-1.753.3582785-.0552252.6586138-.300022.7849578-.6398021s.0589093-.7213287-.1762476-.9972173c-.235157-.2758885-.601207-.4029088-.9567102-.3319806-2.9821793.531815-5.7803663 1.8125395-8.132 3.722h-2.957c2.8306656-2.8965368 6.4758322-4.8629945 10.451-5.638zm-13.7 8.048c.18607134-.2626994.49013867-.416231.812-.41h33.41c.321159-.0055647.6243296.1478921.81.41 4.6466201 7.028077 4.6466201 16.151923 0 23.18-.1856704.2621079-.488841.4155647-.81.41h-27.51c-.131873-.0279076-.268127-.0279076-.4 0h-5.5c-.32115898.0055647-.62432965-.1478921-.81-.41-4.64662008-7.028077-4.64662008-16.151923 0-23.18z"/><path id="Shape" d="m6.542 47.5c.17880678.3097028.50938627.5003484.867.5.35690371-.0007225.68636845-.1916068.86450739-.5008757.17813893-.309269.17794556-.6900364-.00050739-.9991243-3.03140475-5.2612513-3.03140475-11.7387487 0-17 .25615283-.4759933.08769037-1.0693836-.3803603-1.3397768-.46805068-.2703932-1.06625212-.1199053-1.3506397.3397768-3.38846371 5.8801089-3.38846371 13.1198911 0 19z"/><path id="Shape" d="m23 47c4.0145642-.1625685 7.1430896-3.5386943 7-7.554 0-3.671-3.5-7.752-5.592-9.856-.7844065-.761049-2.0315935-.761049-2.816 0-2.092 2.104-5.592 6.185-5.592 9.856-.1430896 4.0153057 2.9854358 7.3914315 7 7.554zm-.012-16c1.176 1.183 5.012 5.3 5.012 8.446.1441658 2.9112778-2.0896281 5.3925761-5 5.554-2.9103719-.1614239-5.1441658-2.6427222-5-5.554 0-3.146 3.836-7.263 4.988-8.446z"/></g></g></svg>