<?xml version="1.0" encoding="UTF-8" standalone="no"?>
<svg
   xmlns:dc="http://purl.org/dc/elements/1.1/"
   xmlns:cc="http://creativecommons.org/ns#"
   xmlns:rdf="http://www.w3.org/1999/02/22-rdf-syntax-ns#"
   xmlns:svg="http://www.w3.org/2000/svg"
   xmlns="http://www.w3.org/2000/svg"
   xmlns:sodipodi="http://sodipodi.sourceforge.net/DTD/sodipodi-0.dtd"
   xmlns:inkscape="http://www.inkscape.org/namespaces/inkscape"
   version="1.1"
   x="0px"
   y="0px"
   width="512px"
   height="512px"
   viewBox="0 0 512 512"
   style="enable-background:new 0 0 512 512;"
   xml:space="preserve"
   id="svg39"
   sodipodi:docname="desayuno.svg"
   inkscape:version="0.92.3 (2405546, 2018-03-11)"><metadata
     id="metadata45"><rdf:RDF><cc:Work
         rdf:about=""><dc:format>image/svg+xml</dc:format><dc:type
           rdf:resource="http://purl.org/dc/dcmitype/StillImage" /></cc:Work></rdf:RDF></metadata><defs
     id="defs43" /><sodipodi:namedview
     pagecolor="#ffffff"
     bordercolor="#666666"
     borderopacity="1"
     objecttolerance="10"
     gridtolerance="10"
     guidetolerance="10"
     inkscape:pageopacity="0"
     inkscape:pageshadow="2"
     inkscape:window-width="640"
     inkscape:window-height="480"
     id="namedview41"
     showgrid="false"
     inkscape:zoom="0.4609375"
     inkscape:cx="256"
     inkscape:cy="256"
     inkscape:window-x="0"
     inkscape:window-y="0"
     inkscape:window-maximized="0"
     inkscape:current-layer="svg39" /><g
     id="afcae5a789ccd549f9c6e2a2f818cd14"
     style="fill:#000000"><g
       id="g32"
       style="fill:#000000" /><g
       fill="#ffffff"
       id="g36"
       style="fill:#000000"><path
         style="display:inline;fill-rule:evenodd;clip-rule:evenodd;fill:#000000"
         d="M295.772,151c0,0,3.335,29.372,0.079,42.937   c-2.458,10.242-14.975,15.341-14.975,15.341s-17.063,11.943-30.648,25.001c-11.087,10.65-19.213,22.914-19.213,22.914   s-12.334,23.944-22.992,33.381c-8.937,7.913-16.506,1.584-16.506,1.584s-10.778-51.417-102.965-55.084   C28.3,234.674,9.566,288.274,9.566,288.274s-4.483,0.989-6.537-3.564C0.583,279.3,0.5,268.201,0.5,268.201   s1.713-75.761,59.068-152.315c59.118-78.904,139.074-94.391,139.074-94.391s15.523-5.369,26.606-3.601   c11.257,1.792,18.072,10.725,18.072,10.725s20.323,33.909,35.032,66.669C297.535,138.018,295.772,151,295.772,151z    M187.743,358.482c0,0,0.074-14.442-2.712-27.82c-3.197-15.387-6.354-30.457-6.354-30.457s-30.382-37.813-86.127-35.318   c-58.141,2.604-75.107,44.384-75.107,44.384s-2.204,33.081,11.981,60.702c16.123,31.389,43.706,48.729,43.706,48.729   s10.284-25.845,52.771-47.312C164.555,351.862,187.743,358.482,187.743,358.482z M228.904,414.573   c-13.22-19.916-32.096-37.314-32.096-37.314s-45.561,2.586-71.169,19.499c-25.866,17.079-29.85,43.312-29.85,43.312   s21.362,25.375,58.764,40.55c28.345,11.506,70.097,13.844,70.097,13.844s17.216-4.866,23.225-15.212   c5.635-9.706,0.084-24.935,0.084-24.935S241.23,433.137,228.904,414.573z M366.733,28.91   c-37.535-10.146-101.293-1.555-101.293-1.555s24.489,31.285,36.021,67.863c12.983,41.178,13.191,79.769,13.191,79.769   s7.605-4.612,18.7-6.329c10.015-1.547,23.5,2.433,32.524,2.84c7.548,0.341,11.586-2.986,11.586-2.986s-0.167-40.928,4.042-72.587   c3.044-22.917,10.854-39.431,10.854-39.431S384.146,33.622,366.733,28.91z M510.311,155.109c0,0-16.597-32.782-41.768-57.954   C447.455,76.068,422.25,68.99,422.25,68.99s-17.35,16.892-21.558,39.46c-5.365,28.793-3.053,62.848-3.053,62.848   s26.656,2.915,49.249,7.598c21.06,4.371,38.816,13.125,38.816,13.125s16.077-4.042,22.609-13.848   C514.028,169.606,510.311,155.109,510.311,155.109z"
         id="path34" /></g></g></svg>