<?xml version="1.0" encoding="UTF-8" standalone="no"?>
<svg
   xmlns:dc="http://purl.org/dc/elements/1.1/"
   xmlns:cc="http://creativecommons.org/ns#"
   xmlns:rdf="http://www.w3.org/1999/02/22-rdf-syntax-ns#"
   xmlns:svg="http://www.w3.org/2000/svg"
   xmlns="http://www.w3.org/2000/svg"
   xmlns:sodipodi="http://sodipodi.sourceforge.net/DTD/sodipodi-0.dtd"
   xmlns:inkscape="http://www.inkscape.org/namespaces/inkscape"
   version="1.1"
   x="0px"
   y="0px"
   width="512px"
   height="512px"
   viewBox="0 0 512 512"
   enable-background="new 0 0 512 512"
   xml:space="preserve"
   id="svg54"
   sodipodi:docname="enfadado.svg"
   inkscape:version="0.92.3 (2405546, 2018-03-11)"><metadata
     id="metadata60"><rdf:RDF><cc:Work
         rdf:about=""><dc:format>image/svg+xml</dc:format><dc:type
           rdf:resource="http://purl.org/dc/dcmitype/StillImage" /></cc:Work></rdf:RDF></metadata><defs
     id="defs58" /><sodipodi:namedview
     pagecolor="#ffffff"
     bordercolor="#666666"
     borderopacity="1"
     objecttolerance="10"
     gridtolerance="10"
     guidetolerance="10"
     inkscape:pageopacity="0"
     inkscape:pageshadow="2"
     inkscape:window-width="640"
     inkscape:window-height="480"
     id="namedview56"
     showgrid="false"
     inkscape:zoom="0.4609375"
     inkscape:cx="256"
     inkscape:cy="256"
     inkscape:window-x="0"
     inkscape:window-y="0"
     inkscape:window-maximized="0"
     inkscape:current-layer="svg54" /><g
     id="2069a460dcf28295e231f3111e044f27"
     style="fill:#000000"><g
       id="g47"
       style="fill:#000000" /><g
       fill="#ffffff"
       id="g51"
       style="fill:#000000"><path
         display="inline"
         d="M256,0.5C114.893,0.5,0.5,114.893,0.5,256S114.893,511.5,256,511.5S511.5,397.107,511.5,256   S397.107,0.5,256,0.5z M256,468.917c-117.404,0-212.917-95.514-212.917-212.917c0-117.404,95.513-212.917,212.917-212.917   c117.403,0,212.917,95.513,212.917,212.917C468.917,373.403,373.403,468.917,256,468.917z M382.977,352.22   c2.279,5.489-0.653,11.652-6.563,13.773c-5.896,2.096-12.517-0.599-14.813-6.059c-1.048-2.441-25.417-40.06-106.03-40.06   c-92.39,0-104.473,37.593-104.583,38.142c-1.167,5.785-7.148,9.606-13.378,8.509c-6.228-1.081-10.326-6.646-9.163-12.422   c0.149-0.728,15.915-72.558,127.124-72.558C352.428,281.546,381.771,349.334,382.977,352.22z M110.817,208.056   c-1.709-5.626,1.468-11.573,7.09-13.28c5.626-1.709,11.573,1.466,13.282,7.093c0.033,0.104,5.855,9.344,33.651,0.904   c27.796-8.446,27.5-19.366,27.467-19.468c-1.709-5.625,1.468-11.571,7.094-13.28c5.623-1.709,11.569,1.466,13.278,7.092   c0.378,1.252,8.7,30.734-41.648,46.029C120.682,238.435,111.196,209.306,110.817,208.056z M401.183,208.056   c-0.379,1.25-9.864,30.378-60.216,15.089c-50.347-15.295-42.025-44.777-41.647-46.029c1.709-5.626,7.656-8.801,13.278-7.092   c5.626,1.709,8.804,7.656,7.095,13.28c-0.033,0.102-0.329,11.022,27.467,19.468c27.796,8.44,33.617-0.801,33.65-0.904   c1.71-5.626,7.656-8.802,13.282-7.093C399.715,196.483,402.892,202.43,401.183,208.056z"
         id="path49"
         style="fill:#000000" /></g></g></svg>