<?xml version="1.0" encoding="UTF-8" standalone="no"?>
<svg
   xmlns:dc="http://purl.org/dc/elements/1.1/"
   xmlns:cc="http://creativecommons.org/ns#"
   xmlns:rdf="http://www.w3.org/1999/02/22-rdf-syntax-ns#"
   xmlns:svg="http://www.w3.org/2000/svg"
   xmlns="http://www.w3.org/2000/svg"
   xmlns:sodipodi="http://sodipodi.sourceforge.net/DTD/sodipodi-0.dtd"
   xmlns:inkscape="http://www.inkscape.org/namespaces/inkscape"
   version="1.1"
   x="0px"
   y="0px"
   width="512px"
   height="512px"
   viewBox="0 0 512 512"
   enable-background="new 0 0 512 512"
   xml:space="preserve"
   id="svg69"
   sodipodi:docname="feliz.svg"
   inkscape:version="0.92.3 (2405546, 2018-03-11)"><metadata
     id="metadata75"><rdf:RDF><cc:Work
         rdf:about=""><dc:format>image/svg+xml</dc:format><dc:type
           rdf:resource="http://purl.org/dc/dcmitype/StillImage" /></cc:Work></rdf:RDF></metadata><defs
     id="defs73" /><sodipodi:namedview
     pagecolor="#ffffff"
     bordercolor="#666666"
     borderopacity="1"
     objecttolerance="10"
     gridtolerance="10"
     guidetolerance="10"
     inkscape:pageopacity="0"
     inkscape:pageshadow="2"
     inkscape:window-width="640"
     inkscape:window-height="480"
     id="namedview71"
     showgrid="false"
     inkscape:zoom="0.4609375"
     inkscape:cx="256"
     inkscape:cy="258.98731"
     inkscape:window-x="0"
     inkscape:window-y="0"
     inkscape:window-maximized="0"
     inkscape:current-layer="svg69" /><g
     id="2069a460dcf28295e231f3111e0446ef"
     style="fill:#000000"><g
       id="g62"
       style="fill:#000000" /><g
       fill="#ffffff"
       id="g66"
       style="fill:#000000"><path
         display="inline"
         d="M256,0.5C114.893,0.5,0.5,114.893,0.5,256S114.893,511.5,256,511.5S511.5,397.107,511.5,256   S397.107,0.5,256,0.5z M256,468.917c-117.404,0-212.917-95.514-212.917-212.917c0-117.404,95.513-212.917,212.917-212.917   c117.403,0,212.917,95.513,212.917,212.917C468.917,373.403,373.403,468.917,256,468.917z M106.958,213.417   c0-29.396,23.833-53.229,53.229-53.229s53.229,23.833,53.229,53.229c0,29.397-23.833,53.229-53.229,53.229   S106.958,242.813,106.958,213.417z M405.042,213.417c0,29.397-23.833,53.229-53.229,53.229s-53.229-23.832-53.229-53.229   c0-29.396,23.833-53.229,53.229-53.229S405.042,184.02,405.042,213.417z M405.042,319.875c0,39.689-78.488,106.458-149.042,106.458   s-149.042-66.769-149.042-106.458S185.446,341.167,256,341.167S405.042,280.186,405.042,319.875z"
         id="path64"
         style="fill:#000000" /></g></g></svg>