<?xml version="1.0" encoding="UTF-8" standalone="no"?>
<svg
   xmlns:dc="http://purl.org/dc/elements/1.1/"
   xmlns:cc="http://creativecommons.org/ns#"
   xmlns:rdf="http://www.w3.org/1999/02/22-rdf-syntax-ns#"
   xmlns:svg="http://www.w3.org/2000/svg"
   xmlns="http://www.w3.org/2000/svg"
   xmlns:sodipodi="http://sodipodi.sourceforge.net/DTD/sodipodi-0.dtd"
   xmlns:inkscape="http://www.inkscape.org/namespaces/inkscape"
   version="1.1"
   x="0px"
   y="0px"
   width="512px"
   height="512px"
   viewBox="0 0 512 512"
   enable-background="new 0 0 512 512"
   xml:space="preserve"
   id="svg99"
   sodipodi:docname="molesto.svg"
   inkscape:version="0.92.3 (2405546, 2018-03-11)"><metadata
     id="metadata105"><rdf:RDF><cc:Work
         rdf:about=""><dc:format>image/svg+xml</dc:format><dc:type
           rdf:resource="http://purl.org/dc/dcmitype/StillImage" /></cc:Work></rdf:RDF></metadata><defs
     id="defs103" /><sodipodi:namedview
     pagecolor="#ffffff"
     bordercolor="#666666"
     borderopacity="1"
     objecttolerance="10"
     gridtolerance="10"
     guidetolerance="10"
     inkscape:pageopacity="0"
     inkscape:pageshadow="2"
     inkscape:window-width="640"
     inkscape:window-height="480"
     id="namedview101"
     showgrid="false"
     inkscape:zoom="0.4609375"
     inkscape:cx="256"
     inkscape:cy="256"
     inkscape:window-x="0"
     inkscape:window-y="0"
     inkscape:window-maximized="0"
     inkscape:current-layer="svg99" /><g
     id="2069a460dcf28295e231f3111e04b1a8"
     style="fill:#000000"><g
       id="g92"
       style="fill:#000000" /><g
       fill="#ffffff"
       id="g96"
       style="fill:#000000"><path
         display="inline"
         d="M256,0.5C114.893,0.5,0.5,114.893,0.5,256S114.893,511.5,256,511.5S511.5,397.107,511.5,256   S397.107,0.5,256,0.5z M256,468.917c-117.404,0-212.917-95.514-212.917-212.917c0-117.404,95.513-212.917,212.917-212.917   c117.403,0,212.917,95.513,212.917,212.917C468.917,373.403,373.403,468.917,256,468.917z M404.442,178.389   c0,0,2.263,2.963,0.6,13.077c-4.754,28.902-23.704,53.042-52.922,53.212c-29.222-0.17-48.172-24.311-52.926-53.212   c-1.663-10.113,0.599-13.077,0.599-13.077c5.527-10.323,13.978-10.03,18.776,0.651c0,0,10.284,22.847,33.551,23.053   c23.263-0.206,33.543-23.053,33.543-23.053C390.466,168.359,398.912,168.066,404.442,178.389z M159.882,244.678   c-29.22-0.17-48.17-24.311-52.923-53.212c-1.664-10.113,0.599-13.077,0.599-13.077c5.529-10.323,13.977-10.03,18.778,0.651   c0,0,10.282,22.847,33.547,23.053c23.265-0.206,33.547-23.053,33.547-23.053c4.801-10.681,13.249-10.974,18.778-0.651   c0,0,2.262,2.963,0.599,13.077C208.052,220.368,189.102,244.508,159.882,244.678z M396.767,332.791   c19.457,36.953-46.817,15.582-104.566,34.808c-57.75,19.221-94.84,53.283-104.566,34.807   c-5.377-10.205,57.997-41.02,115.748-60.245C361.136,322.936,387.035,314.315,396.767,332.791z"
         id="path94"
         style="fill:#000000" /></g></g></svg>