<svg xmlns="http://www.w3.org/2000/svg" viewBox="0 0 512.001 512.001"><path d="M501.801 171.851h-5.366V50.993c0-5.633-4.566-10.199-10.199-10.199H25.764c-5.633 0-10.199 4.566-10.199 10.199v120.858h-5.366C4.566 171.851 0 176.417 0 182.05v62.674c0 5.633 4.566 10.199 10.199 10.199h5.366v29.322c0 103.092 83.865 186.963 186.95 186.963h106.971c103.084 0 186.95-83.872 186.95-186.963v-29.322h5.366c5.633 0 10.199-4.566 10.199-10.199V182.05c-.001-5.633-4.567-10.199-10.2-10.199zM35.963 61.192h440.073v73.747H35.963V61.192zM20.398 192.249H69.62c4.251 0 7.709 3.458 7.709 7.709v26.858c0 4.251-3.458 7.709-7.709 7.709H20.398v-42.276zm15.909 102.539c83.461 5.241 150.438 72.218 155.676 155.68-83.46-5.236-150.436-72.215-155.676-155.68zm263.25 156.022h-87.115a185.628 185.628 0 0 0-14.896-63.561 95.041 95.041 0 0 1 58.461-20.085 94.983 94.983 0 0 1 58.447 20.083 185.663 185.663 0 0 0-14.897 63.563zm20.46-.342c5.238-83.462 72.215-150.439 155.676-155.68-5.239 83.465-72.215 150.444-155.676 155.68zm156.021-176.141h-.001c-65.25 3.526-121.706 40.662-152.328 94.359a115.364 115.364 0 0 0-67.701-21.92 115.417 115.417 0 0 0-67.714 21.923c-30.622-53.699-87.078-90.836-152.329-94.362v-19.404h33.657c15.499 0 28.107-12.609 28.107-28.107v-26.858c0-15.498-12.609-28.107-28.107-28.107H35.965v-16.513h440.073v16.513h-33.657c-15.499 0-28.107 12.609-28.107 28.107v26.858c0 15.499 12.609 28.107 28.107 28.107h33.657v19.404zm15.564-39.802H442.38c-4.251 0-7.709-3.458-7.709-7.709v-26.858c0-4.251 3.458-7.709 7.709-7.709h49.222v42.276z"/></svg>