<svg xmlns="http://www.w3.org/2000/svg" viewBox="0 0 512 512"><path d="M0 81v161.213L188.787 431h134.426L512 242.213V81H0zm56.502 175.289c57.693 15.002 103.207 60.517 118.209 118.209L56.502 256.289zm280.787 118.209c15.002-57.692 60.516-103.207 118.209-118.209L337.289 374.498zM482 151h-60v30h60v40.568c-46.469 3.505-89.659 23.258-122.916 56.516-33.258 33.257-53.011 76.448-56.516 122.916h-93.137c-3.505-46.468-23.258-89.659-56.516-122.916C119.659 244.827 76.469 225.073 30 221.568V181h60v-30H30v-40h452v40z"/></svg>