<svg xmlns="http://www.w3.org/2000/svg" viewBox="0 0 512 512"><path d="M460.37 297.512c5.857-13.419 8.964-27.331 8.964-41.512 0-52.684-38.49-96.281-88.77-104.857 15.096-13.673 24.77-33.223 24.77-55.143 0-51.708-52.781-96-96-96a10.66 10.66 0 0 0-10.667 10.667c0 29.417-28.708 53.333-64 53.333h-21.333c-44.439 0-80.631 38.548-84.561 87.413-48.997 9.62-86.106 52.815-86.106 104.587 0 14.181 3.107 28.092 8.964 41.512C20.5 318.634 0 354.302 0 394.667 0 459.354 52.635 512 117.333 512h277.333C459.365 512 512 459.354 512 394.667c0-40.365-20.5-76.033-51.63-97.155zm-65.703 193.155H117.333c-52.938 0-96-43.063-96-96 0-35.883 20.018-66.855 49.254-83.328.033-.017.068-.008.1-.026.038-.021.057-.06.095-.081 13.85-7.762 29.576-12.565 46.551-12.565 5.896 0 10.667-4.771 10.667-10.667s-4.771-10.667-10.667-10.667c-16.721 0-32.604 3.574-47.013 9.906C66.141 277.066 64 266.602 64 256c0-47.063 38.281-85.333 85.333-85.333A10.66 10.66 0 0 0 160 160c0-5.573-4.313-10-9.758-10.483 4.417-36.178 30.878-64.184 63.091-64.184h21.333c42.404 0 77.405-27.285 83.961-62.792C347.452 28.309 384 58.892 384 96c0 29.417-23.927 53.333-53.333 53.333h-21.333c-5.896 0-10.667 4.771-10.667 10.667s4.771 10.667 10.667 10.667h53.333C409.719 170.667 448 208.938 448 256c0 10.602-2.141 21.066-6.32 31.24-14.409-6.332-30.292-9.906-47.013-9.906-5.896 0-10.667 4.771-10.667 10.667s4.771 10.667 10.667 10.667c16.975 0 32.701 4.803 46.551 12.565.038.021.057.06.095.081.033.018.068.009.1.026 29.236 16.473 49.254 47.445 49.254 83.328 0 52.936-43.063 95.999-96 95.999z"/><circle cx="170.667" cy="256" r="21.333"/><circle cx="341.333" cy="256" r="21.333"/><path d="M354.885 341.833c-5.594-1.542-11.552 1.708-13.156 7.375-9.292 33.042-44.542 56.125-85.719 56.125-40.552 0-76.615-23.646-85.74-56.208-1.583-5.667-7.479-8.958-13.146-7.396-5.677 1.583-8.99 7.479-7.396 13.146 11.844 42.271 55.552 71.792 106.281 71.792 50.688 0 94.385-29.479 106.26-71.667a10.671 10.671 0 0 0-7.384-13.167z"/></svg>