<svg xmlns="http://www.w3.org/2000/svg" viewBox="0 0 323.707 323.707"><path d="M316.207 34.272c-3.855 0-33.539.555-47.264 16.712a26.907 26.907 0 0 0-14.388-4.155H69.15a26.91 26.91 0 0 0-14.388 4.155C41.039 34.827 11.356 34.272 7.5 34.272a7.5 7.5 0 0 0-7.5 7.5v240.162a7.5 7.5 0 0 0 7.5 7.5c3.856 0 33.537-.555 47.262-16.711a26.902 26.902 0 0 0 14.389 4.156h185.405a26.906 26.906 0 0 0 14.39-4.156c13.724 16.156 43.406 16.711 47.262 16.711a7.5 7.5 0 0 0 7.5-7.5V41.772a7.501 7.501 0 0 0-7.501-7.5zm-37.112 226.96a26.92 26.92 0 0 0 2.539-11.431c0-4.143-3.357-7.5-7.5-7.5a7.499 7.499 0 0 0-7.5 7.5c0 6.66-5.418 12.078-12.078 12.078H69.15c-6.659 0-12.077-5.418-12.077-12.078 0-4.143-3.357-7.5-7.5-7.5s-7.5 3.357-7.5 7.5c0 4.083.914 7.955 2.539 11.431-5.119 8.17-19.575 11.568-29.612 12.712v-44.992h7.981c4.143 0 7.5-3.357 7.5-7.5s-3.357-7.5-7.5-7.5H15v-8.84h7.981c4.143 0 7.5-3.357 7.5-7.5s-3.357-7.5-7.5-7.5H15v-8.838h7.981c4.143 0 7.5-3.357 7.5-7.5s-3.357-7.5-7.5-7.5H15v-8.84h7.981c4.143 0 7.5-3.357 7.5-7.5s-3.357-7.5-7.5-7.5H15v-8.84h7.981c4.143 0 7.5-3.357 7.5-7.5s-3.357-7.5-7.5-7.5H15v-8.838h7.981c4.143 0 7.5-3.357 7.5-7.5s-3.357-7.5-7.5-7.5H15V49.764c10.041 1.145 24.495 4.542 29.613 12.712a26.907 26.907 0 0 0-2.54 11.432c0 4.143 3.357 7.5 7.5 7.5s7.5-3.357 7.5-7.5c0-6.66 5.418-12.078 12.077-12.078h185.405c6.66 0 12.078 5.418 12.078 12.078 0 4.143 3.357 7.5 7.5 7.5s7.5-3.357 7.5-7.5c0-4.084-.914-7.956-2.54-11.432 5.119-8.17 19.576-11.568 29.613-12.713v44.994h-7.981c-4.143 0-7.5 3.357-7.5 7.5s3.357 7.5 7.5 7.5h7.981v8.838h-7.981c-4.143 0-7.5 3.357-7.5 7.5s3.357 7.5 7.5 7.5h7.981v8.84h-7.981a7.499 7.499 0 0 0-7.5 7.5c0 4.143 3.357 7.5 7.5 7.5h7.981v8.84h-7.981a7.499 7.499 0 0 0-7.5 7.5c0 4.143 3.357 7.5 7.5 7.5h7.981v8.838h-7.981a7.499 7.499 0 0 0-7.5 7.5c0 4.143 3.357 7.5 7.5 7.5h7.981v8.84h-7.981a7.499 7.499 0 0 0-7.5 7.5c0 4.143 3.357 7.5 7.5 7.5h7.981v44.991c-10.04-1.145-24.493-4.543-29.611-12.712z"/><path d="M251.181 121.01h-2.072v-9.261c0-14.932-12.147-27.079-27.079-27.079H101.676c-14.931 0-27.077 12.147-27.077 27.079V211.96c0 14.931 12.146 27.077 27.077 27.077H222.03c14.932 0 27.079-12.146 27.079-27.077v-9.264h2.072c12.441 0 22.564-10.123 22.564-22.566v-36.557c-.001-12.441-10.123-22.563-22.564-22.563zm7.563 59.121c0 4.172-3.393 7.566-7.564 7.566h-9.572a7.499 7.499 0 0 0-7.5 7.5v16.764c0 6.659-5.419 12.077-12.079 12.077H101.676c-6.659 0-12.077-5.418-12.077-12.077V111.749c0-6.66 5.418-12.079 12.077-12.079H222.03c6.66 0 12.079 5.419 12.079 12.079v16.761c0 4.143 3.357 7.5 7.5 7.5h9.572c4.171 0 7.564 3.394 7.564 7.564v36.557z"/></svg>