<?xml version="1.0" encoding="UTF-8" standalone="no"?>
<svg
   xmlns:dc="http://purl.org/dc/elements/1.1/"
   xmlns:cc="http://creativecommons.org/ns#"
   xmlns:rdf="http://www.w3.org/1999/02/22-rdf-syntax-ns#"
   xmlns:svg="http://www.w3.org/2000/svg"
   xmlns="http://www.w3.org/2000/svg"
   xmlns:sodipodi="http://sodipodi.sourceforge.net/DTD/sodipodi-0.dtd"
   xmlns:inkscape="http://www.inkscape.org/namespaces/inkscape"
   version="1.1"
   x="0px"
   y="0px"
   width="512px"
   height="512px"
   viewBox="0 0 512 512"
   style="enable-background:new 0 0 512 512;"
   xml:space="preserve"
   id="svg114"
   sodipodi:docname="triste.svg"
   inkscape:version="0.92.3 (2405546, 2018-03-11)"><metadata
     id="metadata120"><rdf:RDF><cc:Work
         rdf:about=""><dc:format>image/svg+xml</dc:format><dc:type
           rdf:resource="http://purl.org/dc/dcmitype/StillImage" /></cc:Work></rdf:RDF></metadata><defs
     id="defs118" /><sodipodi:namedview
     pagecolor="#ffffff"
     bordercolor="#666666"
     borderopacity="1"
     objecttolerance="10"
     gridtolerance="10"
     guidetolerance="10"
     inkscape:pageopacity="0"
     inkscape:pageshadow="2"
     inkscape:window-width="640"
     inkscape:window-height="480"
     id="namedview116"
     showgrid="false"
     inkscape:zoom="0.4609375"
     inkscape:cx="397.80061"
     inkscape:cy="256.51815"
     inkscape:window-x="2562"
     inkscape:window-y="221"
     inkscape:window-maximized="0"
     inkscape:current-layer="svg114" /><g
     id="7935ec95c421cee6d86eb22ecd10367e"
     style="fill:#000000"><g
       id="g107"
       style="fill:#000000" /><g
       fill="#ffffff"
       id="g111"
       style="fill:#000000"><path
         style="display:inline;fill:#000000"
         d="M256,43.083c117.403,0,212.917,95.513,212.917,212.917c0,117.403-95.514,212.917-212.917,212.917   c-117.404,0-212.917-95.514-212.917-212.917C43.083,138.596,138.596,43.083,256,43.083 M256,0.5C114.893,0.5,0.5,114.893,0.5,256   S114.893,511.5,256,511.5S511.5,397.107,511.5,256S397.107,0.5,256,0.5L256,0.5z M160.188,149.542   c-29.396,0-53.229,23.833-53.229,53.229c0,29.396,23.833,53.229,53.229,53.229s53.229-23.833,53.229-53.229   C213.417,173.374,189.584,149.542,160.188,149.542z M351.813,149.542c-29.396,0-53.229,23.833-53.229,53.229   c0,29.396,23.833,53.229,53.229,53.229s53.229-23.833,53.229-53.229C405.042,173.374,381.209,149.542,351.813,149.542z    M412.548,388.366c7.677-2.97,11.494-11.603,8.525-19.279c-1.564-4.038-39.715-98.952-165.63-98.952   c-144.573,0-165.071,100.57-165.262,101.589c-1.505,8.047,3.772,15.744,11.808,17.312c8.042,1.58,15.842-3.696,17.472-11.719   c0.641-3.16,17.081-77.373,135.982-77.373c104.912,0,136.553,76.691,137.851,79.956l0,0c2.3,5.876,7.922,9.473,13.881,9.473   C408.963,389.372,410.78,389.048,412.548,388.366z"
         id="path109" /></g></g></svg>