<svg id="Layer_5" enable-background="new 0 0 64 64" height="512" viewBox="0 0 64 64" width="512" xmlns="http://www.w3.org/2000/svg"><g><path d="m47 51v-2c0-.552-.448-1-1-1h-4v4h4c.552 0 1-.448 1-1z"/><path d="m17 49v2c0 .552.448 1 1 1h4v-4h-4c-.552 0-1 .448-1 1z"/><path d="m36 48h4v4h-4z"/><path d="m24 48h4v4h-4z"/><path d="m30 48h4v4h-4z"/><path d="m32 21c3.86 0 7-3.14 7-7s-3.14-7-7-7-7 3.14-7 7 3.14 7 7 7zm-3.293-6.707 1.293 1.293 5.293-5.293 1.414 1.414-6.707 6.707-2.707-2.707z"/><path d="m21 35h22v-6h-22zm18-4h2v2h-2zm-4 0h2v2h-2zm-4 0h2v2h-2z"/><path d="m21 22v5h22v-5c0-.551-.449-1-1-1h-4.356c-1.299 1.049-2.892 1.747-4.635 1.944l-.009.056v2h-2v-2-.055c-1.747-.195-3.344-.894-4.645-1.945h-4.355c-.551 0-1 .449-1 1zm6 1h2v2h-2zm-4 0h2v2h-2z"/><path d="m43 42v-5h-22v5c0 .551.449 1 1 1h20c.551 0 1-.449 1-1zm-18-1h-2v-2h2zm4 0h-2v-2h2zm4 0h-2v-2h2z"/><path d="m47 55c-1.654 0-3 1.346-3 3 0 .128.022.25.038.373-3.79 1.736-7.833 2.627-12.038 2.627-10.329 0-19.978-5.671-25.131-14.606l2.935.587.393-1.961-5.981-1.196-1.196 5.98 1.961.393.463-2.313c5.574 9.259 15.708 15.116 26.556 15.116 4.517 0 8.861-.962 12.931-2.837.539.516 1.266.837 2.069.837 1.654 0 3-1.346 3-3s-1.346-3-3-3z"/><circle cx="53" cy="53" r="3"/><circle cx="58" cy="47" r="3"/><path d="m17 9c1.654 0 3-1.346 3-3 0-.128-.022-.25-.038-.373 3.79-1.736 7.833-2.627 12.038-2.627 10.329 0 19.979 5.67 25.131 14.606l-2.935-.587-.393 1.961 5.981 1.196 1.196-5.98-1.961-.393-.463 2.313c-5.573-9.259-15.708-15.116-26.556-15.116-4.517 0-8.861.962-12.931 2.837-.539-.516-1.266-.837-2.069-.837-1.654 0-3 1.346-3 3s1.346 3 3 3z"/><circle cx="11" cy="11" r="3"/><circle cx="6" cy="17" r="3"/></g></svg>