<?xml version="1.0" encoding="iso-8859-1"?>
<!-- Generator: Adobe Illustrator 19.0.0, SVG Export Plug-In . SVG Version: 6.00 Build 0)  -->
<svg version="1.1" id="Layer_1" xmlns="http://www.w3.org/2000/svg" xmlns:xlink="http://www.w3.org/1999/xlink" x="0px" y="0px"
	 viewBox="0 0 512.003 512.003" style="enable-background:new 0 0 512.003 512.003;" xml:space="preserve">
<g>
	<g>
		<path d="M482.374,281.625c-4.283-0.625-8.262,2.336-8.889,6.619c-0.34,2.323-0.722,4.669-1.135,6.973
			c-0.764,4.26,2.071,8.333,6.331,9.097c0.468,0.084,0.933,0.123,1.392,0.123c3.722,0,7.025-2.662,7.705-6.455
			c0.442-2.468,0.852-4.981,1.215-7.468C489.62,286.231,486.657,282.252,482.374,281.625z"/>
	</g>
</g>
<g>
	<g>
		<path d="M463.34,350.674c-3.877-1.929-8.579-0.35-10.507,3.524c-2.015,4.047-4.185,8.089-6.451,12.012
			c-2.165,3.748-0.881,8.541,2.866,10.705c1.235,0.714,2.583,1.052,3.913,1.052c2.707,0,5.342-1.405,6.793-3.918
			c2.427-4.203,4.752-8.532,6.91-12.868C468.792,357.308,467.215,352.603,463.34,350.674z"/>
	</g>
</g>
<g>
	<g>
		<path d="M476.477,313.618c-4.153-1.228-8.512,1.135-9.743,5.284c-1.288,4.338-2.728,8.693-4.284,12.942
			c-1.487,4.065,0.602,8.565,4.667,10.052c0.889,0.325,1.798,0.48,2.693,0.48c3.196,0,6.198-1.971,7.36-5.146
			c1.666-4.553,3.21-9.219,4.589-13.868C482.991,319.212,480.625,314.85,476.477,313.618z"/>
	</g>
</g>
<g>
	<g>
		<path d="M444.018,384.913c-3.486-2.564-8.392-1.817-10.956,1.67c-2.678,3.641-5.51,7.252-8.416,10.732
			c-2.774,3.322-2.329,8.264,0.993,11.038c1.466,1.225,3.248,1.821,5.019,1.821c2.242,0,4.47-0.958,6.02-2.814
			c3.112-3.725,6.143-7.592,9.01-11.49C448.252,392.383,447.505,387.478,444.018,384.913z"/>
	</g>
</g>
<g>
	<g>
		<path d="M419.118,415.342c-2.997-3.124-7.959-3.226-11.08-0.229c-1.697,1.629-3.438,3.247-5.174,4.811
			c-0.001,0.001-0.003,0.003-0.004,0.004c-37.514,33.778-85.2,53.447-135.349,56.064l7.171-6.72c3.159-2.959,3.32-7.918,0.36-11.076
			c-2.959-3.159-7.918-3.318-11.077-0.361l-17.858,16.733c-2.575,2.414-4.05,5.8-4.05,9.293c0,3.492,1.478,6.879,4.051,9.289
			l17.857,16.734c1.512,1.417,3.437,2.118,5.357,2.118c2.091,0,4.177-0.832,5.72-2.478c2.959-3.158,2.798-8.118-0.359-11.077
			l-7.207-6.754c54.043-2.626,105.463-23.734,145.87-60.116c0.002-0.002,0.004-0.004,0.007-0.006
			c1.859-1.675,3.722-3.406,5.537-5.149C422.013,423.425,422.115,418.465,419.118,415.342z"/>
	</g>
</g>
<g>
	<g>
		<path d="M223.832,473.96c-2.315-0.34-4.659-0.722-6.966-1.139c-4.26-0.767-8.335,2.063-9.103,6.322
			c-0.768,4.259,2.062,8.335,6.322,9.103c2.474,0.446,4.988,0.857,7.471,1.223c0.387,0.056,0.769,0.084,1.148,0.084
			c3.824,0,7.172-2.803,7.744-6.699C231.076,478.57,228.114,474.59,223.832,473.96z"/>
	</g>
</g>
<g>
	<g>
		<path d="M193.217,467.186c-4.334-1.292-8.68-2.736-12.918-4.294c-4.059-1.496-8.566,0.589-10.059,4.651
			c-1.494,4.063,0.588,8.566,4.651,10.059c4.543,1.671,9.202,3.22,13.849,4.605c0.747,0.223,1.5,0.328,2.241,0.328
			c3.376,0,6.493-2.198,7.508-5.6C199.725,472.787,197.366,468.423,193.217,467.186z"/>
	</g>
</g>
<g>
	<g>
		<path d="M125.69,433.437c-3.64-2.69-7.239-5.525-10.698-8.428c-3.314-2.78-8.258-2.35-11.04,0.966
			c-2.783,3.315-2.35,8.258,0.964,11.04c3.705,3.109,7.561,6.147,11.459,9.028c1.401,1.034,3.033,1.534,4.651,1.534
			c2.401,0,4.772-1.1,6.309-3.18C129.907,440.915,129.17,436.01,125.69,433.437z"/>
	</g>
</g>
<g>
	<g>
		<path d="M157.993,453.246c-4.044-2.022-8.076-4.196-11.984-6.465c-3.744-2.175-8.539-0.9-10.711,2.844
			c-2.172,3.743-0.899,8.539,2.844,10.711c4.188,2.43,8.508,4.763,12.84,6.929c1.125,0.562,2.322,0.83,3.499,0.83
			c2.875,0,5.641-1.588,7.015-4.334C163.432,459.891,161.864,455.182,157.993,453.246z"/>
	</g>
</g>
<g>
	<g>
		<path d="M97.249,408.379c-1.628-1.702-3.242-3.446-4.8-5.183c-33.709-37.594-53.338-85.383-55.956-135.641l6.662,7.141
			c2.953,3.164,7.911,3.335,11.077,0.383c3.164-2.952,3.336-7.911,0.383-11.076l-16.699-17.897
			c-2.411-2.584-5.798-4.066-9.293-4.066c-3.495,0-6.882,1.482-9.293,4.066l-16.7,17.897c-2.953,3.164-2.781,8.123,0.383,11.077
			c1.51,1.41,3.429,2.108,5.345,2.108c2.096,0,4.188-0.837,5.731-2.49l6.703-7.183c2.624,54.143,23.686,105.66,59.988,146.145
			c1.668,1.859,3.396,3.726,5.138,5.548c1.54,1.611,3.601,2.422,5.666,2.422c1.946,0,3.895-0.721,5.414-2.171
			C100.127,416.47,100.239,411.509,97.249,408.379z"/>
	</g>
</g>
<g>
	<g>
		<path d="M33.321,207.689c-4.262-0.761-8.333,2.07-9.097,6.331c-0.442,2.468-0.852,4.981-1.215,7.469
			c-0.627,4.283,2.336,8.262,6.619,8.889c0.385,0.056,0.767,0.084,1.144,0.084c3.826,0,7.174-2.806,7.745-6.703
			c0.34-2.323,0.722-4.669,1.135-6.973C40.416,212.526,37.582,208.454,33.321,207.689z"/>
	</g>
</g>
<g>
	<g>
		<path d="M86.365,103.651c-3.324-2.775-8.265-2.329-11.038,0.993c-3.112,3.725-6.143,7.592-9.01,11.49
			c-2.565,3.487-1.817,8.392,1.67,10.957c1.398,1.028,3.025,1.524,4.637,1.524c2.407,0,4.784-1.107,6.318-3.194
			c2.678-3.641,5.51-7.253,8.416-10.732C90.132,111.367,89.687,106.424,86.365,103.651z"/>
	</g>
</g>
<g>
	<g>
		<path d="M62.757,135.087c-3.748-2.166-8.54-0.882-10.706,2.866c-2.427,4.202-4.752,8.532-6.91,12.867
			c-1.929,3.874-0.35,8.58,3.524,10.509c1.122,0.558,2.312,0.822,3.486,0.822c2.879,0,5.651-1.593,7.021-4.347
			c2.015-4.047,4.185-8.089,6.451-12.012C67.788,142.044,66.504,137.251,62.757,135.087z"/>
	</g>
</g>
<g>
	<g>
		<path d="M44.888,170.107c-4.066-1.49-8.565,0.601-10.053,4.667c-1.666,4.553-3.21,9.219-4.59,13.869
			c-1.232,4.149,1.134,8.511,5.283,9.743c0.744,0.22,1.494,0.325,2.233,0.325c3.379,0,6.499-2.204,7.51-5.609
			c1.287-4.338,2.728-8.693,4.284-12.942C51.041,176.094,48.952,171.594,44.888,170.107z"/>
	</g>
</g>
<g>
	<g>
		<path d="M265.897,18.852L248.04,2.119c-3.158-2.96-8.118-2.799-11.077,0.36c-2.96,3.158-2.798,8.118,0.36,11.077l7.209,6.755
			c-54.045,2.625-105.467,23.734-145.874,60.116c-0.002,0.002-0.005,0.003-0.007,0.005c-1.859,1.675-3.722,3.406-5.537,5.149
			c-3.123,2.997-3.225,7.957-0.228,11.08c1.539,1.603,3.595,2.411,5.655,2.411c1.952,0,3.906-0.724,5.425-2.183
			c1.697-1.629,3.438-3.247,5.174-4.811c0.002-0.001,0.003-0.003,0.004-0.004c37.514-33.777,85.2-53.444,135.348-56.064l-7.17,6.72
			c-3.158,2.959-3.32,7.918-0.359,11.077c1.543,1.647,3.629,2.479,5.72,2.479c1.921,0,3.845-0.702,5.357-2.118l17.858-16.734
			c2.574-2.414,4.05-5.799,4.05-9.291C269.948,24.651,268.472,21.266,265.897,18.852z"/>
	</g>
</g>
<g>
	<g>
		<path d="M508.99,236.925c-3.162-2.954-8.121-2.782-11.075,0.381l-6.703,7.183c-2.624-54.142-23.686-105.659-59.987-146.145
			c-1.668-1.859-3.396-3.726-5.138-5.549c-2.991-3.129-7.952-3.243-11.079-0.251c-3.129,2.989-3.241,7.951-0.251,11.08
			c1.627,1.703,3.241,3.447,4.799,5.184c33.709,37.594,53.338,85.383,55.955,135.641l-6.663-7.141
			c-2.953-3.165-7.912-3.335-11.076-0.383c-3.164,2.952-3.336,7.911-0.383,11.076l16.696,17.895
			c2.412,2.585,5.799,4.068,9.295,4.068c3.495,0,6.883-1.483,9.292-4.066l16.7-17.896
			C512.326,244.838,512.155,239.879,508.99,236.925z"/>
	</g>
</g>
<g>
	<g>
		<path d="M297.919,23.756c-2.484-0.447-4.997-0.857-7.468-1.22c-4.287-0.619-8.263,2.333-8.892,6.615
			c-0.629,4.283,2.333,8.263,6.615,8.893c2.305,0.338,4.65,0.721,6.969,1.139c0.469,0.084,0.936,0.124,1.397,0.124
			c3.721,0,7.022-2.659,7.704-6.45C305.01,28.597,302.178,24.522,297.919,23.756z"/>
	</g>
</g>
<g>
	<g>
		<path d="M373.864,51.667c-4.188-2.43-8.508-4.763-12.84-6.929c-3.872-1.934-8.579-0.367-10.515,3.504
			c-1.936,3.87-0.368,8.579,3.504,10.515c4.043,2.022,8.075,4.197,11.983,6.465c1.238,0.719,2.59,1.061,3.927,1.061
			c2.702,0,5.331-1.399,6.786-3.904C378.881,58.635,377.607,53.839,373.864,51.667z"/>
	</g>
</g>
<g>
	<g>
		<path d="M407.088,74.988c-3.708-3.112-7.564-6.148-11.458-9.026c-3.482-2.572-8.388-1.835-10.96,1.646
			c-2.571,3.482-1.835,8.387,1.646,10.96c3.636,2.688,7.235,5.523,10.698,8.427c1.468,1.233,3.256,1.834,5.033,1.834
			c2.237,0,4.458-0.952,6.008-2.8C410.836,82.713,410.403,77.771,407.088,74.988z"/>
	</g>
</g>
<g>
	<g>
		<path d="M337.113,34.401c-4.543-1.671-9.202-3.22-13.849-4.605c-4.147-1.236-8.512,1.123-9.749,5.271
			c-1.236,4.148,1.123,8.512,5.272,9.749c4.335,1.292,8.681,2.737,12.919,4.295c0.892,0.329,1.806,0.484,2.703,0.484
			c3.192,0,6.191-1.964,7.356-5.135C343.258,40.398,341.176,35.894,337.113,34.401z"/>
	</g>
</g>
<g>
	<g>
		<path d="M441.81,212.426c-0.984-4.213-5.198-6.828-9.415-5.848c-4.215,0.985-6.833,5.2-5.848,9.416
			c2.457,10.511,3.918,21.301,4.399,32.171h-35.607c-0.695-23.768-4.547-46.778-11.284-68.097
			c8.36-3.059,16.546-6.429,24.531-10.099c2.741,4.854,5.268,9.863,7.561,15.026c1.756,3.955,6.386,5.74,10.342,3.982
			s5.739-6.387,3.982-10.342c-30.604-68.914-99.087-113.441-174.469-113.441c-105.213,0-190.81,85.596-190.81,190.808
			c0,105.214,85.597,190.811,190.81,190.811c105.212,0,190.808-85.597,190.808-190.81
			C446.811,241.288,445.129,226.627,441.81,212.426z M400.203,156.568c-6.976,3.151-14.113,6.059-21.389,8.727
			c-6.186-15.674-14.015-30.235-23.379-43.251c-5.575-7.75-11.553-14.755-17.867-20.998
			C362.405,114.126,383.993,133.095,400.203,156.568z M379.66,248.163h-52.229c-0.258-17.891-1.395-35.345-3.353-51.954
			c15.408-2.764,30.49-6.467,45.112-11.079C375.289,204.55,378.961,225.819,379.66,248.163z M363.943,170.355
			c-13.608,4.267-27.64,7.709-41.973,10.306c-3.211-20.814-7.773-39.986-13.558-56.615c-5.094-14.642-10.994-26.734-17.502-36.078
			C322.137,100.975,348.268,130.964,363.943,170.355z M263.84,82.92c17.18,8.848,34.286,45.865,42.664,100.202
			c-14.015,1.917-28.273,3.03-42.664,3.329V82.92z M308.601,198.654c1.793,15.401,2.899,31.974,3.155,49.51H263.84v-46.037h0
			C278.933,201.826,293.892,200.665,308.601,198.654z M263.84,263.837h47.916c-0.256,17.538-1.363,34.112-3.155,49.514
			c-14.71-2.012-29.669-3.173-44.761-3.474V263.837z M248.166,82.92V186.45c-14.392-0.298-28.651-1.412-42.667-3.329
			C213.878,128.784,230.985,91.767,248.166,82.92z M200.247,248.163c0.256-17.537,1.363-34.11,3.155-49.511
			c14.71,2.013,29.67,3.173,44.764,3.474v46.037H200.247z M248.166,263.837v46.039c-15.094,0.301-30.053,1.462-44.763,3.474
			c-1.793-15.402-2.9-31.976-3.156-49.514H248.166z M221.093,87.969c-6.507,9.344-12.409,21.436-17.502,36.077
			c-5.785,16.628-10.347,35.8-13.558,56.615c-14.333-2.597-28.364-6.038-41.97-10.306
			C163.738,130.965,189.867,100.976,221.093,87.969z M174.5,263.838h10.073c0.257,17.892,1.395,35.347,3.352,51.959
			c-15.407,2.764-30.488,6.468-45.109,11.079c-6.099-19.422-9.771-40.69-10.471-63.037h10.808c4.328,0,7.837-3.508,7.837-7.837
			c0-4.33-3.509-7.839-7.837-7.839h-10.807c0.699-22.345,4.371-43.613,10.47-63.033c14.621,4.611,29.702,8.315,45.11,11.079
			c-1.958,16.61-3.095,34.065-3.352,51.955H174.5c-4.328,0-7.837,3.508-7.837,7.837S170.172,263.838,174.5,263.838z
			 M174.407,101.075c-6.302,6.236-12.271,13.231-17.837,20.969c-9.363,13.016-17.192,27.577-23.379,43.251
			c-7.246-2.657-14.355-5.553-21.303-8.687C127.913,133.442,149.371,114.315,174.407,101.075z M103.487,169.997
			c7.964,3.658,16.127,7.019,24.464,10.07c-6.736,21.319-10.589,44.329-11.284,68.097H81.052
			C82.304,219.858,90.306,193.279,103.487,169.997z M81.052,263.837h35.615c0.696,23.77,4.547,46.78,11.285,68.099
			c-8.337,3.051-16.5,6.411-24.464,10.069C90.306,318.723,82.304,292.144,81.052,263.837z M111.888,355.395
			c6.95-3.136,14.058-6.03,21.304-8.687c6.186,15.674,14.015,30.234,23.378,43.25c5.567,7.739,11.537,14.734,17.839,20.97
			C149.371,397.688,127.914,378.559,111.888,355.395z M148.063,341.648c13.608-4.267,27.639-7.708,41.97-10.305
			c3.211,20.814,7.773,39.985,13.558,56.614c5.093,14.642,10.995,26.733,17.502,36.077
			C189.868,411.027,163.739,381.038,148.063,341.648z M263.84,429.082v-40.379c0-4.329-3.509-7.837-7.837-7.837
			c-4.328,0-7.837,3.508-7.837,7.837v40.38c-17.181-8.847-34.288-45.864-42.667-100.202c14.016-1.917,28.275-3.031,42.667-3.329
			v30.759c0,4.329,3.509,7.837,7.837,7.837c4.328,0,7.837-3.508,7.837-7.837v-30.76c14.391,0.298,28.649,1.412,42.664,3.328
			C298.126,383.217,281.019,420.234,263.84,429.082z M290.948,423.984c6.493-9.337,12.382-21.413,17.465-36.027
			c5.785-16.628,10.347-35.8,13.558-56.615c14.336,2.598,28.371,6.041,41.983,10.31C348.06,381.657,321.707,411.123,290.948,423.984
			z M337.462,410.999c16.97-16.665,31.193-38.538,41.335-64.298c7.252,2.658,14.366,5.555,21.32,8.693
			C384.063,378.601,362.557,397.757,337.462,410.999z M408.519,342.004c-7.973-3.66-16.143-7.023-24.487-10.076
			c1.49-4.721,2.85-9.55,4.072-14.483c1.04-4.202-1.522-8.45-5.724-9.49c-4.203-1.038-8.45,1.522-9.49,5.724
			c-1.113,4.496-2.349,8.895-3.698,13.196c-14.623-4.611-29.705-8.315-45.113-11.079c1.958-16.611,3.095-34.066,3.352-51.959h52.223
			c-0.195,6.21-0.608,12.405-1.261,18.496c-0.46,4.303,2.655,8.166,6.958,8.627c4.3,0.461,8.166-2.654,8.627-6.957
			c0.712-6.642,1.16-13.397,1.36-20.166h35.616C429.701,292.144,421.699,318.722,408.519,342.004z"/>
	</g>
</g>
<g>
</g>
<g>
</g>
<g>
</g>
<g>
</g>
<g>
</g>
<g>
</g>
<g>
</g>
<g>
</g>
<g>
</g>
<g>
</g>
<g>
</g>
<g>
</g>
<g>
</g>
<g>
</g>
<g>
</g>
</svg>
